<svg width="32" height="32" viewBox="0 0 32 32" fill="none" xmlns="http://www.w3.org/2000/svg">
<path opacity="0.15" d="M2.38 29.6666C2.38 29.9318 3.53893 30.1862 5.60183 30.3737C7.66473 30.5613 10.4626 30.6666 13.38 30.6666C16.2974 30.6666 19.0953 30.5613 21.1582 30.3737C23.2211 30.1862 24.38 29.9318 24.38 29.6666C24.38 29.4014 23.2211 29.1471 21.1582 28.9595C19.0953 28.772 16.2974 28.6666 13.38 28.6666C10.4626 28.6666 7.66473 28.772 5.60183 28.9595C3.53893 29.1471 2.38 29.4014 2.38 29.6666Z" fill="#87512F"/>
<path d="M30.2666 8.12L18.48 9.55999L19.56 18.4L30.7533 17.0333C30.8315 17.0243 30.907 16.9998 30.9756 16.9612C31.0442 16.9227 31.1045 16.8709 31.1529 16.8089C31.2013 16.7468 31.2368 16.6758 31.2575 16.5999C31.2782 16.5239 31.2836 16.4447 31.2733 16.3667L30.2666 8.12Z" fill="#87512F" stroke="#87512F" stroke-linecap="round" stroke-linejoin="round"/>
<path d="M18.9113 13.1007L30.698 11.662L31.0566 14.6067L19.2713 16.046L18.9113 13.1007Z" fill="white" stroke="#87512F" stroke-linecap="round" stroke-linejoin="round"/>
<path d="M21.68 11.26C21.6584 11.1041 21.5764 10.9629 21.4517 10.8669C21.327 10.7709 21.1696 10.7277 21.0133 10.7467C20.9357 10.7565 20.8609 10.7816 20.7931 10.8205C20.7252 10.8594 20.6657 10.9113 20.618 10.9733C20.5703 11.0352 20.5353 11.106 20.5151 11.1815C20.4948 11.257 20.4897 11.3358 20.5 11.4133L20.5733 12C20.5822 12.2237 20.5067 12.4426 20.3618 12.6133C20.2169 12.784 20.0133 12.8941 19.7911 12.9218C19.5689 12.9494 19.3444 12.8927 19.1621 12.7627C18.9798 12.6327 18.8529 12.439 18.8066 12.22L18.48 9.55332L22.1 5.33332C26.9133 5.15998 30.6333 6.23332 30.8533 8.03332L31.1733 10.6667C31.1789 10.7115 31.1741 10.757 31.1592 10.7996C31.1443 10.8423 31.1198 10.8809 31.0876 10.9125C31.0553 10.9442 31.0162 10.9679 30.9732 10.9819C30.9303 10.9959 30.8847 10.9998 30.84 10.9933C30.594 10.9466 30.3694 10.8223 30.1991 10.6388C30.0288 10.4553 29.9216 10.2221 29.8933 9.97332C29.8837 9.89584 29.8589 9.82101 29.8203 9.75312C29.7818 9.68522 29.7302 9.62558 29.6687 9.5776C29.6071 9.52963 29.5366 9.49425 29.4613 9.4735C29.3861 9.45274 29.3075 9.44702 29.23 9.45665C29.0735 9.4761 28.9312 9.55691 28.8343 9.68131C28.7863 9.74291 28.7509 9.81335 28.7302 9.88862C28.7094 9.96389 28.7037 10.0425 28.7133 10.12L28.7866 10.7066C28.7963 10.7841 28.7906 10.8627 28.7698 10.938C28.749 11.0133 28.7137 11.0837 28.6657 11.1453C28.6177 11.2069 28.5581 11.2585 28.4902 11.297C28.4223 11.3356 28.3475 11.3604 28.27 11.37C28.1925 11.3796 28.1139 11.3739 28.0386 11.3531C27.9633 11.3324 27.8929 11.297 27.8313 11.249C27.7697 11.2011 27.7182 11.1414 27.6796 11.0735C27.6411 11.0056 27.6163 10.9308 27.6066 10.8533C27.5975 10.7758 27.5731 10.7009 27.5349 10.6329C27.4968 10.5648 27.4456 10.5049 27.3843 10.4566C27.3231 10.4083 27.2529 10.3726 27.1778 10.3514C27.1027 10.3303 27.0241 10.3241 26.9466 10.3333C26.8692 10.3425 26.7943 10.3669 26.7262 10.405C26.6581 10.4432 26.5982 10.4943 26.55 10.5556C26.4524 10.6794 26.4081 10.8368 26.4266 10.9933L26.5 11.5866C26.538 11.8996 26.4501 12.2148 26.2557 12.463C26.0613 12.7112 25.7763 12.872 25.4633 12.91C25.1504 12.948 24.8351 12.8601 24.5869 12.6657C24.3388 12.4713 24.178 12.1863 24.14 11.8733L24.0333 10.9866C24.0243 10.9087 23.9998 10.8334 23.9612 10.7651C23.9225 10.6968 23.8706 10.637 23.8084 10.5891C23.7463 10.5413 23.6752 10.5064 23.5993 10.4865C23.5234 10.4666 23.4443 10.4621 23.3666 10.4733C23.2095 10.4933 23.0667 10.5746 22.9693 10.6995C22.8719 10.8244 22.8278 10.9827 22.8466 11.14L22.8866 11.4333C22.9061 11.5898 22.8626 11.7476 22.7657 11.872C22.6688 11.9964 22.5265 12.0772 22.37 12.0967C22.2135 12.1161 22.0557 12.0726 21.9313 11.9757C21.8069 11.8788 21.7261 11.7365 21.7066 11.58L21.68 11.26Z" fill="white"/>
<path d="M21.68 11.26C21.6584 11.1041 21.5764 10.9629 21.4517 10.8669C21.327 10.7709 21.1696 10.7277 21.0133 10.7467C20.9357 10.7565 20.8609 10.7816 20.7931 10.8205C20.7252 10.8594 20.6657 10.9113 20.618 10.9733C20.5703 11.0352 20.5353 11.106 20.5151 11.1815C20.4948 11.257 20.4897 11.3358 20.5 11.4133L20.5733 12C20.5822 12.2237 20.5067 12.4426 20.3618 12.6133C20.2169 12.784 20.0133 12.8941 19.7911 12.9218C19.5689 12.9494 19.3444 12.8927 19.1621 12.7627C18.9798 12.6327 18.8529 12.439 18.8066 12.22L18.48 9.55332L22.1 5.33332C26.9133 5.15998 30.6333 6.23332 30.8533 8.03332L31.1733 10.6667C31.1789 10.7115 31.1741 10.757 31.1592 10.7996C31.1443 10.8423 31.1198 10.8809 31.0876 10.9125C31.0553 10.9442 31.0162 10.9679 30.9732 10.9819C30.9303 10.9959 30.8847 10.9998 30.84 10.9933C30.594 10.9466 30.3694 10.8223 30.1991 10.6388C30.0288 10.4553 29.9216 10.2221 29.8933 9.97332C29.8837 9.89584 29.8589 9.82101 29.8203 9.75312C29.7818 9.68522 29.7302 9.62558 29.6687 9.5776C29.6071 9.52963 29.5366 9.49425 29.4613 9.4735C29.3861 9.45275 29.3075 9.44702 29.23 9.45665C29.0735 9.4761 28.9312 9.55691 28.8343 9.68131C28.7863 9.74291 28.7509 9.81335 28.7302 9.88862C28.7094 9.96389 28.7037 10.0425 28.7133 10.12L28.7866 10.7066C28.7963 10.7841 28.7906 10.8627 28.7698 10.938C28.749 11.0133 28.7137 11.0837 28.6657 11.1453C28.6177 11.2069 28.5581 11.2585 28.4902 11.297C28.4223 11.3356 28.3475 11.3604 28.27 11.37C28.1925 11.3796 28.1139 11.3739 28.0386 11.3531C27.9633 11.3324 27.8929 11.297 27.8313 11.249C27.7697 11.2011 27.7182 11.1414 27.6796 11.0735C27.6411 11.0056 27.6163 10.9308 27.6066 10.8533C27.5975 10.7758 27.5731 10.7009 27.5349 10.6329C27.4968 10.5648 27.4456 10.5049 27.3843 10.4566C27.3231 10.4083 27.2529 10.3726 27.1778 10.3514C27.1027 10.3303 27.0241 10.3241 26.9466 10.3333C26.8692 10.3425 26.7943 10.3669 26.7262 10.405C26.6581 10.4432 26.5982 10.4943 26.55 10.5556C26.4524 10.6794 26.4081 10.8368 26.4266 10.9933L26.5 11.5866C26.538 11.8996 26.4501 12.2148 26.2557 12.463C26.0613 12.7112 25.7763 12.872 25.4633 12.91C25.1504 12.948 24.8351 12.8601 24.5869 12.6657C24.3388 12.4713 24.178 12.1863 24.14 11.8733L24.0333 10.9867C24.0243 10.9087 23.9998 10.8334 23.9612 10.7651C23.9225 10.6968 23.8706 10.637 23.8084 10.5891C23.7463 10.5413 23.6752 10.5064 23.5993 10.4865C23.5234 10.4666 23.4443 10.4621 23.3666 10.4733C23.2095 10.4933 23.0667 10.5746 22.9693 10.6995C22.8719 10.8244 22.8278 10.9827 22.8466 11.14L22.8866 11.4333C22.9061 11.5898 22.8626 11.7476 22.7657 11.872C22.6688 11.9964 22.5265 12.0772 22.37 12.0967C22.2135 12.1161 22.0557 12.0726 21.9313 11.9757C21.8069 11.8788 21.7261 11.7365 21.7066 11.58L21.68 11.26Z" stroke="#87512F" stroke-linecap="round" stroke-linejoin="round"/>
<path d="M20.54 9.30672L29.0866 8.26672" stroke="#87512F" stroke-linecap="round" stroke-linejoin="round"/>
<path d="M2.13335 15.0133C1.89335 17.1333 6.32002 19.3733 12 20C17.68 20.6266 22.52 19.46 22.76 17.3333L21.7734 26.2066C21.5334 28.3266 16.7134 29.54 11.0134 28.8733C5.31335 28.2066 0.886686 26 1.12669 23.86L2.13335 15.0133Z" fill="#87512F" stroke="#87512F" stroke-linecap="round" stroke-linejoin="round"/>
<path d="M1.72668 18.5533C1.48668 20.6667 5.91335 22.9133 11.62 23.56C17.3267 24.2067 22.1334 23.0133 22.3734 20.8933L22.04 23.84C21.8 25.96 16.98 27.1733 11.28 26.5067C5.58002 25.84 1.15335 23.62 1.39335 21.5L1.72668 18.5533Z" fill="white" stroke="#87512F" stroke-linecap="round" stroke-linejoin="round"/>
<path d="M15.48 12.76C14.6533 12.5934 13.7866 12.4534 12.8933 12.3534C6.89331 11.6867 1.77997 12.8267 1.55997 14.9467L1.02664 19.6667C1.01351 19.7827 1.02335 19.9002 1.05561 20.0124C1.08787 20.1246 1.14191 20.2293 1.21465 20.3206C1.36155 20.505 1.5757 20.6235 1.80997 20.65C2.04425 20.6766 2.27946 20.6089 2.46387 20.462C2.64828 20.3151 2.76678 20.101 2.79331 19.8667C2.80103 19.746 2.83319 19.6281 2.88783 19.5202C2.94247 19.4123 3.01845 19.3166 3.11117 19.239C3.20389 19.1613 3.31142 19.1033 3.42723 19.0684C3.54305 19.0335 3.66474 19.0225 3.78493 19.0361C3.90512 19.0496 4.02131 19.0875 4.12644 19.1472C4.23158 19.207 4.32348 19.2876 4.39658 19.3839C4.46967 19.4803 4.52243 19.5905 4.55166 19.7079C4.5809 19.8252 4.58599 19.9473 4.56664 20.0667L4.36664 21.84C4.32244 22.2308 4.43527 22.6231 4.68032 22.9307C4.92536 23.2382 5.28255 23.4358 5.67331 23.4801C6.06406 23.5243 6.45637 23.4114 6.76392 23.1664C7.07148 22.9213 7.2691 22.5641 7.31331 22.1734C7.33983 21.9391 7.45833 21.725 7.64274 21.5781C7.82715 21.4312 8.06236 21.3635 8.29664 21.39C8.53091 21.4166 8.74506 21.5351 8.89196 21.7195C9.03886 21.9039 9.10649 22.1391 9.07997 22.3734L9.01331 22.96C8.99544 23.1903 9.06746 23.4185 9.21424 23.5969C9.36101 23.7752 9.57115 23.8897 9.80055 23.9165C10.03 23.9432 10.2608 23.88 10.4447 23.7403C10.6285 23.6005 10.7511 23.3949 10.7866 23.1667L10.82 22.8667C10.8651 22.476 11.0635 22.1191 11.3717 21.8747C11.6799 21.6303 12.0726 21.5183 12.4633 21.5634C12.8541 21.6085 13.2109 21.8069 13.4553 22.1151C13.6997 22.4233 13.8117 22.816 13.7666 23.2067L13.6666 24.0867C13.6488 24.317 13.7208 24.5452 13.8676 24.7235C14.0143 24.9018 14.2245 25.0164 14.4539 25.0431C14.6833 25.0699 14.9141 25.0067 15.098 24.8669C15.2818 24.7271 15.4044 24.5216 15.44 24.2934L15.6733 22.2267C15.6893 22.1548 15.7319 22.0916 15.7924 22.0496C15.8529 22.0076 15.927 21.9899 16 22C16.0389 22.0033 16.0768 22.0145 16.1113 22.0329C16.1458 22.0513 16.1762 22.0766 16.2005 22.1072C16.2249 22.1378 16.2427 22.1731 16.253 22.2108C16.2632 22.2486 16.2656 22.288 16.26 22.3267C16.2277 22.7122 16.347 23.0951 16.5925 23.394C16.838 23.693 17.1903 23.8845 17.5747 23.9279C17.9591 23.9712 18.3453 23.8631 18.6512 23.6264C18.9572 23.3897 19.1588 23.043 19.2133 22.6601L19.3466 21.4801C19.3732 21.2458 19.4917 21.0316 19.6761 20.8847C19.8605 20.7378 20.0957 20.6702 20.33 20.6967C20.5642 20.7232 20.7784 20.8417 20.9253 21.0261C21.0722 21.2106 21.1398 21.4458 21.1133 21.68C21.0954 21.9103 21.1675 22.1385 21.3142 22.3169C21.461 22.4952 21.6711 22.6097 21.9006 22.6365C22.13 22.6632 22.3608 22.6 22.5447 22.4603C22.7285 22.3205 22.8511 22.1149 22.8866 21.8867L23.3333 18C23.3436 17.922 23.3382 17.8428 23.3175 17.7669C23.2968 17.6909 23.2613 17.6199 23.2129 17.5579C23.1645 17.4958 23.1042 17.444 23.0356 17.4055C22.967 17.3669 22.8915 17.3424 22.8133 17.3334L11.3066 16L15.48 12.76Z" fill="white"/>
<path d="M15.48 12.76C14.6533 12.5934 13.7866 12.4534 12.8933 12.3534C6.89331 11.6867 1.77997 12.8267 1.55997 14.9467L1.02664 19.6667C1.01351 19.7827 1.02335 19.9002 1.05561 20.0124C1.08787 20.1246 1.14191 20.2293 1.21465 20.3206C1.36155 20.505 1.5757 20.6235 1.80997 20.65C2.04425 20.6766 2.27946 20.6089 2.46387 20.462C2.64828 20.3151 2.76678 20.101 2.79331 19.8667C2.80103 19.746 2.83319 19.6281 2.88783 19.5202C2.94247 19.4123 3.01845 19.3166 3.11117 19.239C3.20389 19.1613 3.31142 19.1033 3.42723 19.0684C3.54305 19.0335 3.66474 19.0225 3.78493 19.0361C3.90512 19.0496 4.02131 19.0875 4.12644 19.1472C4.23158 19.207 4.32348 19.2876 4.39658 19.3839C4.46967 19.4803 4.52243 19.5905 4.55166 19.7079C4.5809 19.8252 4.58599 19.9473 4.56664 20.0667L4.36664 21.84C4.32244 22.2308 4.43527 22.6231 4.68032 22.9307C4.92536 23.2382 5.28255 23.4358 5.6733 23.48C6.06406 23.5243 6.45636 23.4114 6.76392 23.1664C7.07148 22.9213 7.2691 22.5641 7.31331 22.1734C7.34009 21.9383 7.45901 21.7235 7.64398 21.576C7.82895 21.4286 8.06487 21.3605 8.29997 21.3867C8.41611 21.3999 8.52849 21.436 8.63064 21.4928C8.7328 21.5497 8.8227 21.6261 8.8952 21.7178C8.96769 21.8095 9.02133 21.9146 9.05304 22.0271C9.08475 22.1397 9.09391 22.2573 9.07997 22.3734L9.01331 22.96C8.99544 23.1903 9.06746 23.4185 9.21424 23.5969C9.36101 23.7752 9.57115 23.8897 9.80055 23.9165C10.03 23.9432 10.2608 23.88 10.4447 23.7403C10.6285 23.6005 10.7511 23.3949 10.7866 23.1667L10.82 22.8667C10.8651 22.476 11.0635 22.1191 11.3717 21.8747C11.6799 21.6303 12.0726 21.5183 12.4633 21.5634C12.8541 21.6085 13.2109 21.8069 13.4553 22.1151C13.6997 22.4233 13.8117 22.816 13.7666 23.2067L13.6666 24.0867C13.6488 24.317 13.7208 24.5452 13.8676 24.7235C14.0143 24.9018 14.2245 25.0164 14.4539 25.0431C14.6833 25.0699 14.9141 25.0067 15.098 24.8669C15.2818 24.7271 15.4044 24.5216 15.44 24.2934L15.6733 22.2267C15.6893 22.1548 15.7319 22.0916 15.7924 22.0496C15.8529 22.0076 15.927 21.9899 16 22C16.0389 22.0033 16.0768 22.0145 16.1113 22.0329C16.1458 22.0513 16.1762 22.0766 16.2005 22.1072C16.2249 22.1378 16.2427 22.1731 16.253 22.2108C16.2632 22.2486 16.2656 22.288 16.26 22.3267C16.2277 22.7122 16.347 23.0951 16.5925 23.394C16.838 23.693 17.1903 23.8845 17.5747 23.9279C17.9591 23.9712 18.3453 23.8631 18.6512 23.6264C18.9572 23.3897 19.1588 23.043 19.2133 22.6601L19.3466 21.48C19.3732 21.2458 19.4917 21.0316 19.6761 20.8847C19.8605 20.7378 20.0957 20.6702 20.33 20.6967C20.5642 20.7232 20.7784 20.8417 20.9253 21.0261C21.0722 21.2106 21.1398 21.4458 21.1133 21.68C21.0954 21.9103 21.1675 22.1385 21.3142 22.3169C21.461 22.4952 21.6711 22.6097 21.9006 22.6365C22.13 22.6632 22.3608 22.6 22.5447 22.4603C22.7285 22.3205 22.8511 22.1149 22.8866 21.8867L23.3333 18C23.343 17.923 23.3368 17.8448 23.315 17.7702C23.2932 17.6957 23.2563 17.6264 23.2066 17.5667C23.1091 17.4451 22.968 17.3662 22.8133 17.3467L11.3066 16.0134L15.48 12.76Z" stroke="#87512F" stroke-linecap="round" stroke-linejoin="round"/>
<path d="M15.06 16.48L15.48 12.76L11.2733 16.0533L15.06 16.48Z" fill="#87512F" stroke="#87512F" stroke-linecap="round" stroke-linejoin="round"/>
<path d="M2.71997 15.08C2.55331 16.5466 6.77997 18.2266 12.1533 18.84C15.8466 19.26 19.12 19.0666 20.8666 18.4266" stroke="#87512F" stroke-linecap="round" stroke-linejoin="round"/>
</svg>
